<svg width="48" height="48" viewBox="0 0 48 48" fill="none" xmlns="http://www.w3.org/2000/svg">
<circle cx="24" cy="24" r="24" fill="white" fill-opacity="0.2"/>
<circle cx="24.0001" cy="24.0001" r="20.4" fill="white"/>
<path d="M29.5 13H18.5C15.4624 13 13 15.4624 13 18.5V29.5C13 32.5376 15.4624 35 18.5 35H29.5C32.5376 35 35 32.5376 35 29.5V18.5C35 15.4624 32.5376 13 29.5 13Z" stroke="#3A6E48" stroke-width="2" stroke-linecap="round" stroke-linejoin="round"/>
<path d="M28.4001 23.3071C28.5359 24.2226 28.3795 25.1575 27.9533 25.979C27.527 26.8005 26.8526 27.4666 26.0259 27.8827C25.1992 28.2988 24.2624 28.4436 23.3487 28.2966C22.435 28.1496 21.5909 27.7182 20.9364 27.0638C20.282 26.4093 19.8506 25.5652 19.7036 24.6515C19.5566 23.7378 19.7014 22.801 20.1175 21.9743C20.5336 21.1476 21.1997 20.4732 22.0212 20.047C22.8427 19.6207 23.7776 19.4643 24.6931 19.6001C25.6269 19.7386 26.4915 20.1737 27.159 20.8412C27.8265 21.5088 28.2616 22.3733 28.4001 23.3071Z" stroke="#3A6E48" stroke-width="2" stroke-linecap="round" stroke-linejoin="round"/>
<path d="M30.5941 17.8695C30.611 17.9839 30.5915 18.1008 30.5382 18.2035C30.4849 18.3061 30.4006 18.3894 30.2973 18.4414C30.1939 18.4934 30.0768 18.5115 29.9626 18.4932C29.8484 18.4748 29.7429 18.4209 29.6611 18.3391C29.5793 18.2573 29.5254 18.1517 29.507 18.0375C29.4886 17.9233 29.5067 17.8062 29.5587 17.7029C29.6107 17.5995 29.694 17.5152 29.7967 17.462C29.8994 17.4087 30.0162 17.3891 30.1307 17.4061C30.2474 17.4234 30.3555 17.4778 30.4389 17.5612C30.5223 17.6447 30.5767 17.7527 30.5941 17.8695Z" stroke="#3A6E48" stroke-width="2" stroke-linecap="round" stroke-linejoin="round"/>
</svg>
