<svg width="48" height="48" viewBox="0 0 48 48" fill="none" xmlns="http://www.w3.org/2000/svg">
<circle cx="24" cy="24" r="24" fill="white" fill-opacity="0.2"/>
<circle cx="24.0001" cy="24.0001" r="20.4" fill="white"/>
<path d="M24.0001 13.2C21.7732 13.2028 19.6383 14.0571 18.0637 15.5755C16.489 17.094 15.6031 19.1526 15.6001 21.2999C15.6001 27.1151 23.4261 34.3983 23.7586 34.7054C23.8233 34.766 23.9099 34.8 24.0001 34.8C24.0903 34.8 24.1769 34.766 24.2416 34.7054C24.5741 34.3983 32.4001 27.1151 32.4001 21.2999C32.3971 19.1526 31.5112 17.094 29.9365 15.5755C28.3619 14.0571 26.227 13.2028 24.0001 13.2ZM24.0001 25.0124C23.2386 25.0124 22.4943 24.7947 21.8612 24.3868C21.228 23.9788 20.7346 23.399 20.4432 22.7207C20.1518 22.0423 20.0755 21.2958 20.2241 20.5757C20.3726 19.8555 20.7393 19.194 21.2777 18.6748C21.8162 18.1556 22.5022 17.802 23.249 17.6588C23.9958 17.5155 24.7699 17.5891 25.4734 17.87C26.1769 18.151 26.7782 18.6269 27.2013 19.2374C27.6243 19.8479 27.8501 20.5657 27.8501 21.2999C27.8495 22.2844 27.4437 23.2283 26.7218 23.9244C25.9999 24.6205 25.021 25.0118 24.0001 25.0124Z" fill="#3A6E48"/>
</svg>
